#!OML:ASF F:\VICON\USERDATA\INSTALL\rory3\rory3.ASF
:FULLY-SPECIFIED
:DEGREES
107
root 0.210865 18.4043 19.1987 3.62446 0.263491 -3.88047
lowerback 10.8022 2.22461 5.84586
upperback -1.24647 3.83997 1.35889
thorax -7.10451 1.67096 -2.48246
lowerneck -19.1894 -4.95294 -2.28782
upperneck 11.3296 -6.68902 3.84001
head 6.78939 -2.97451 0.854818
rclavicle 7.10655e-015 1.35174e-014
rhumerus -34.8404 18.6931 -99.2627
rradius 108.384
rwrist -7.41076
rhand -21.4127 39.1191
rfingers 7.12502
rthumb 4.97582 9.19754
lclavicle 7.10655e-015 1.35174e-014
lhumerus -67.2545 -8.19023 97.5949
lradius 106.849
lwrist 28.237
lhand -30.1976 6.40846
lfingers 7.12502
lthumb -3.5083 36.3593
rfemur 12.7425 3.73814 31.9833
rtibia 28.5113
rfoot 20.6136 1.06229
rtoes 0.888143
lfemur -40.03 1.81993 -18.0672
ltibia 54.1512
lfoot -2.56086 -12.3834
ltoes -12.6171
108
root 0.208653 18.4699 19.7199 3.57031 0.52527 -3.59916
lowerback 10.4321 2.29769 5.78974
upperback -1.48178 3.89713 1.11218
thorax -7.12651 1.69191 -2.70685
lowerneck -18.407 -5.00395 -2.38211
upperneck 11.5487 -6.7952 4.06182
head 6.74756 -3.01861 0.94249
rclavicle -3.0911e-014 -2.78299e-015
rhumerus -35.6993 18.9325 -99.8574
rradius 108.831
rwrist -8.16831
rhand -21.5434 37.0373
rfingers 7.12502
rthumb 4.84968 7.11277
lclavicle -3.0911e-014 -2.78299e-015
lhumerus -68.3988 -7.91548 97.2268
lradius 107.159
lwrist 28.2758
lhand -29.88 5.51971
lfingers 7.12502
lthumb -3.20162 35.4754
rfemur 13.8838 4.56541 31.771
rtibia 28.2442
rfoot 23.8871 1.97807
rtoes 2.19519
lfemur -39.1943 1.44207 -18.8788
ltibia 49.8789
lfoot -1.58421 -13.6893
ltoes -14.1749
109
root 0.198223 18.5212 20.2131 3.76745 1.23757 -3.80951
lowerback 10.0663 2.20374 6.20422
upperback -1.69462 3.8015 1.01393
thorax -7.12254 1.62295 -3.01313
lowerneck -18.1759 -5.10309 -2.42164
upperneck 11.7689 -6.95979 4.21688
head 6.79399 -3.08579 0.982059
rclavicle 2.36057e-014 -2.98177e-015
rhumerus -36.0218 19.0771 -100.103
rradius 109.079
rwrist -8.40588
rhand -21.3798 36.5128
rfingers 7.12502
rthumb 5.00765 6.592
lclavicle 2.36057e-014 -2.98177e-015
lhumerus -69.206 -7.66124 96.8309
lradius 107.555
lwrist 28.2604
lhand -29.5044 3.85838
lfingers 7.12502
lthumb -2.83884 33.8192
rfemur 14.2857 5.41544 32.3897
rtibia 28.7459
rfoot 25.7259 2.2969
rtoes 5.99812
lfemur -38.7709 0.772661 -19.0223
ltibia 45.7591
lfoot -0.5628 -14.9923
ltoes -13.9893
110
root 0.180361 18.5551 20.7046 3.93925 1.56945 -4.1859
lowerback 9.80048 2.20489 6.5702
upperback -1.88554 3.83734 1.00326
thorax -7.14981 1.62052 -3.22435
lowerneck -18.306 -5.13133 -2.24042
upperneck 12.1154 -7.04336 4.12575
head 6.92107 -3.11782 0.907834
rclavicle -2.32081e-014 4.96962e-015
rhumerus -36.2594 19.3293 -100.325
rradius 109.235
rwrist -8.26512
rhand -21.1092 36.5852
rfingers 7.12502
rthumb 5.26894 6.67072
lclavicle -2.32081e-014 4.96962e-015
lhumerus -70.0696 -7.33436 96.4333
lradius 108.296
lwrist 28.3758
lhand -29.0469 3.28309
lfingers 7.12502
lthumb -2.39704 33.2494
rfemur 14.4831 6.68217 33.3315
rtibia 29.7932
rfoot 26.0115 1.69816
rtoes 10.2416
lfemur -38.3696 0.653284 -19.0343
ltibia 41.8278
lfoot 0.360447 -15.9683
ltoes -11.8734
111
root 0.161166 18.5661 21.2055 4.08189 1.44537 -4.59669
lowerback 9.56656 2.35527 6.86583
upperback -2.16324 4.07021 0.998049
thorax -7.27252 1.71112 -3.42263
lowerneck -18.1004 -5.10354 -2.06488
upperneck 12.4288 -7.04751 3.99806
head 6.97781 -3.12121 0.839526
rclavicle -1.98163e-014 -1.49089e-014
rhumerus -36.7932 19.5599 -100.693
rradius 109.411
rwrist -8.47667
rhand -20.8184 36.5763
rfingers 7.12502
rthumb 5.54971 6.66893
lclavicle -1.98163e-014 -1.49089e-014
lhumerus -71.1074 -7.10067 96.132
lradius 109.083
lwrist 28.2629
lhand -28.7546 2.77587
lfingers 7.12502
lthumb -2.1147 32.7451
rfemur 14.645 8.01805 34.2091
rtibia 31.281
rfoot 25.2717 0.835232
rtoes 11.5816
lfemur -37.9133 1.03696 -19.1518
ltibia 37.9823
lfoot 1.35558 -16.7375
ltoes -10.3636
112
root 0.139882 18.5841 21.6936 4.03578 1.68483 -4.75941
lowerback 9.75268 2.38615 6.97698
upperback -2.36623 4.1504 0.956556
thorax -7.58047 1.72667 -3.55748
lowerneck -17.8547 -5.20857 -2.23559
upperneck 12.4646 -7.19066 4.22077
head 6.96835 -3.18111 0.926596
rclavicle -1.19022e-014 -1.27222e-014
rhumerus -37.2286 19.5966 -100.947
rradius 109.538
rwrist -8.53185
rhand -20.9158 36.8735
rfingers 7.12502
rthumb 5.4556 6.9637
lclavicle -1.19022e-014 -1.27222e-014
lhumerus -71.8786 -6.97979 95.9443
lradius 109.824
lwrist 28.0782
lhand -28.7988 2.96608
lfingers 7.12502
lthumb -2.15737 32.9349
rfemur 14.7509 8.72017 34.7947
rtibia 33.139
rfoot 24.2977 -0.182497
rtoes 9.99858
lfemur -37.1009 1.02755 -19.3684
ltibia 34.5972
lfoot 2.43896 -17.067
ltoes -5.49813
113
root 0.125326 18.5961 22.1869 4.07552 1.66144 -4.80607
lowerback 9.69299 2.47938 6.95002
upperback -2.40145 4.26437 0.904917
thorax -7.56941 1.78211 -3.61109
lowerneck -17.8941 -5.25619 -2.35724
upperneck 12.4242 -7.25348 4.40547
head 6.97607 -3.20021 0.997509
rclavicle 2.45996e-015 -4.96962e-015
rhumerus -37.3067 19.7126 -101.148
rradius 109.538
rwrist -8.35952
rhand -21.1184 36.6754
rfingers 7.12502
rthumb 5.26 6.7607
lclavicle 2.45996e-015 -4.96962e-015
lhumerus -72.2317 -6.79585 95.6875
lradius 110.488
lwrist 27.919
lhand -29.1463 3.94487
lfingers 7.12502
lthumb -2.49298 33.9101
rfemur 14.6123 9.35387 35.0389
rtibia 35.3485
rfoot 23.1117 -1.23775
rtoes 8.38754
lfemur -36.6027 1.13701 -19.7539
ltibia 31.5352
lfoot 5.3047 -15.8292
ltoes 5.1372
114
root 0.111492 18.5928 22.6733 4.14583 1.44398 -4.75768
lowerback 9.47382 2.60515 6.70957
upperback -2.35864 4.37991 0.890048
thorax -7.39883 1.85784 -3.49432
lowerneck -17.8421 -5.19448 -2.37404
upperneck 12.203 -7.16263 4.45031
head 6.89477 -3.15815 1.02871
rclavicle -2.47238e-015 3.37934e-015
rhumerus -37.182 20.0603 -101.236
rradius 109.44
rwrist -8.31267
rhand -21.3024 36.4297
rfingers 7.12502
rthumb 5.08233 6.51067
lclavicle -2.47238e-015 3.37934e-015
lhumerus -72.3437 -6.3813 95.5005
lradius 111.028
lwrist 27.6271
lhand -29.4961 4.77758
lfingers 7.12502
lthumb -2.83079 34.7385
rfemur 14.3314 9.88764 35.0367
rtibia 37.7816
rfoot 21.4307 -2.44031
rtoes 7.59873
lfemur -35.6686 2.45961 -20.9858
ltibia 29.2193
lfoot 1.76054 -16.136
ltoes -11.0741
115
root 0.0991603 18.5713 23.1488 4.04928 1.41092 -4.76101
lowerback 9.53919 2.66394 6.62994
upperback -2.28946 4.44795 0.86206
thorax -7.35775 1.89702 -3.49092
lowerneck -17.7564 -5.18314 -2.42757
upperneck 11.9439 -7.1323 4.51144
head 6.79972 -3.1466 1.06492
rclavicle -1.4561e-014 -4.24405e-014
rhumerus -37.1992 20.1324 -101.282
rradius 109.376
rwrist -8.31641
rhand -21.5417 36.4019
rfingers 7.12502
rthumb 4.85135 6.47748
lclavicle -1.4561e-014 -4.24405e-014
lhumerus -72.3936 -6.16155 95.4071
lradius 111.606
lwrist 27.3462
lhand -29.3742 4.6864
lfingers 7.12502
lthumb -2.71311 34.6489
rfemur 13.9165 10.0338 35.0524
rtibia 40.5113
rfoot 19.8142 -3.56705
rtoes 6.34009
lfemur -34.934 3.29664 -21.9158
ltibia 27.394
lfoot 0.911446 -15.3194
ltoes -20.9612
116
root 0.087492 18.5514 23.6246 3.63341 1.5336 -4.83395
lowerback 9.92863 2.64211 6.6774
upperback -2.10862 4.44584 0.848967
thorax -7.38262 1.89538 -3.54957
lowerneck -17.618 -5.16435 -2.54743
upperneck 11.5846 -7.08917 4.68171
head 6.67009 -3.12487 1.1501
rclavicle 5.38582e-015 6.95746e-016
rhumerus -37.1883 20.0961 -101.334
rradius 109.122
rwrist -8.36823
rhand -21.8348 35.8869
rfingers 7.12502
rthumb 4.56832 5.95618
lclavicle 5.38582e-015 6.95746e-016
lhumerus -72.3257 -6.04919 95.3497
lradius 112.097
lwrist 27.0006
lhand -29.3123 4.27892
lfingers 7.12502
lthumb -2.65332 34.2422
rfemur 13.5712 9.79458 35.0788
rtibia 43.4575
rfoot 18.3284 -4.79749
rtoes 8.67046
lfemur -34.1255 3.64823 -22.4191
ltibia 26.2824
lfoot 2.12021 -13.4204
ltoes -18.2916
117
root 0.0675182 18.5074 24.1022 3.21617 1.50858 -5.06284
lowerback 10.4078 2.67092 6.77836
upperback -1.98955 4.5332 0.883617
thorax -7.51612 1.93005 -3.60891
lowerneck -17.6573 -5.14279 -2.75173
upperneck 11.4164 -7.03996 4.9272
head 6.63767 -3.09099 1.26748
rclavicle -1.68656e-014 -1.08338e-014
rhumerus -37.0983 20.1482 -101.402
rradius 108.667
rwrist -8.29163
rhand -22.1138 35.712
rfingers 7.12502
rthumb 4.29891 5.77567
lclavicle -1.68656e-014 -1.08338e-014
lhumerus -72.1742 -6.0628 95.3577
lradius 112.428
lwrist 26.62
lhand -29.3704 3.93648
lfingers 7.12502
lthumb -2.70942 33.899
rfemur 13.0794 9.60246 35.2177
rtibia 46.59
rfoot 17.0334 -6.2435
rtoes 13.4882
lfemur -33.1548 4.25067 -22.7343
ltibia 25.3923
lfoot 2.53452 -12.5391
ltoes -17.53
118
root 0.0452475 18.4488 24.583 2.82934 1.53443 -4.96733
lowerback 10.683 2.72176 6.47414
upperback -1.79633 4.57246 0.887104
thorax -7.48297 1.96755 -3.45339
lowerneck -17.9326 -5.17759 -2.90847
upperneck 11.4431 -7.05243 4.98068
head 6.69997 -3.09385 1.302
rclavicle -1.82509e-014 1.36167e-014
rhumerus -36.9123 20.1424 -101.292
rradius 108.308
rwrist -8.17211
rhand -22.0036 35.6103
rfingers 7.12502
rthumb 4.40527 5.67608
lclavicle -1.82509e-014 1.36167e-014
lhumerus -71.6979 -6.08128 95.4941
lradius 112.541
lwrist 26.2735
lhand -29.3091 3.15452
lfingers 7.12502
lthumb -2.65028 33.1178
rfemur 12.4196 9.25443 34.9354
rtibia 49.871
rfoot 16.2212 -7.26023
rtoes 13.8249
lfemur -32.1758 4.71086 -23.3505
ltibia 24.8634
lfoot 2.62999 -12.9931
ltoes -18.4182
119
root 0.0249361 18.3804 25.0591 2.43466 1.89957 -4.75003
lowerback 10.7944 2.66306 6.12551
upperback -1.54265 4.43993 0.85303
thorax -7.30798 1.92899 -3.27346
lowerneck -18.013 -5.22675 -2.99621
upperneck 11.3408 -7.09707 5.02582
head 6.68681 -3.11549 1.32448
rclavicle 3.94774e-014 -4.37326e-015
rhumerus -36.6581 20.1364 -101.146
rradius 107.896
rwrist -8.18275
rhand -21.9691 35.1955
rfingers 7.12502
rthumb 4.43861 5.26201
lclavicle 3.94774e-014 -4.37326e-015
lhumerus -71.016 -6.07461 95.6444
lradius 112.552
lwrist 25.9854
lhand -29.8421 2.6381
lfingers 7.12502
lthumb -3.16499 32.5944
rfemur 11.5575 8.2721 34.2948
rtibia 53.2433
rfoot 15.789 -7.64964
rtoes 12.0337
lfemur -31.2948 4.6927 -23.949
ltibia 24.6986
lfoot 3.1685 -14.0862
ltoes -16.5805
120
root -0.00307848 18.291 25.5225 2.06446 2.33275 -4.82227
lowerback 11.0469 2.54807 5.96969
upperback -1.42859 4.28115 0.883245
thorax -7.35773 1.8585 -3.14226
lowerneck -17.6107 -5.20161 -2.93171
upperneck 11.0291 -7.07073 5.01968
head 6.51613 -3.11314 1.32669
rclavicle 2.58669e-014 1.1778e-014
rhumerus -36.452 20.148 -101.131
rradius 107.227
rwrist -8.12163
rhand -22.3303 34.6813
rfingers 7.12502
rthumb 4.0898 4.74083
lclavicle 2.58669e-014 1.1778e-014
lhumerus -70.4757 -6.145 95.7556
lradius 112.61
lwrist 25.7724
lhand -29.7144 3.27117
lfingers 7.12502
lthumb -3.04169 33.2292
rfemur 10.464 7.07074 33.8513
rtibia 56.6657
rfoot 15.525 -8.23321
rtoes 10.7268
lfemur -30.4821 4.61976 -24.1408
ltibia 24.7548
lfoot 3.70142 -15.1884
ltoes -15.6159
121
root -0.031381 18.1874 25.9921 1.69451 2.79958 -4.89118
lowerback 11.279 2.39602 5.79842
upperback -1.33896 4.06855 0.893663
thorax -7.42542 1.76099 -3.01311
lowerneck -17.222 -5.0829 -2.72791
upperneck 10.8097 -6.9483 4.97008
head 6.36762 -3.06037 1.30253
rclavicle 1.97868e-014 2.93207e-015
rhumerus -36.336 19.9597 -101.163
rradius 106.407
rwrist -8.10681
rhand -22.2977 34.8121
rfingers 7.12502
rthumb 4.12125 4.87226
lclavicle 1.97868e-014 2.93207e-015
lhumerus -69.9581 -6.25395 95.8516
lradius 112.638
lwrist 25.579
lhand -29.487 3.73446
lfingers 7.12502
lthumb -2.82203 33.6955
rfemur 9.38048 5.71197 33.291
rtibia 60.044
rfoot 15.1368 -8.965
rtoes 8.83731
lfemur -29.5538 4.51985 -24.2752
ltibia 24.9961
lfoot 4.1094 -16.2775
ltoes -16.2447
